<?xml version="1.0" standalone="no"?>
<!DOCTYPE svg PUBLIC "-//W3C//DTD SVG 20010904//EN"
 "http://www.w3.org/TR/2001/REC-SVG-20010904/DTD/svg10.dtd">
<svg version="1.0" xmlns="http://www.w3.org/2000/svg"
 width="48.000000pt" height="48.000000pt" viewBox="0 0 48.000000 48.000000"
 preserveAspectRatio="xMidYMid meet">

<g transform="translate(0.000000,48.000000) scale(0.100000,-0.100000)"
fill="#000000" stroke="none">
<path d="M107 430 c-12 -32 -22 -41 -46 -46 l-31 -6 0 -110 c0 -89 4 -116 20
-148 24 -47 70 -84 127 -101 105 -31 235 68 232 176 -1 28 -2 28 -10 -8 -13
-57 -35 -93 -76 -124 -32 -24 -45 -28 -104 -28 -44 0 -73 5 -81 14 -11 11 -9
12 12 5 14 -5 48 -9 77 -8 40 0 60 7 87 28 56 42 68 76 67 179 l0 90 -35 29
c-19 16 -38 37 -41 48 -6 18 -15 20 -83 20 -75 0 -77 -1 -94 -30 -10 -17 -31
-38 -49 -48 l-31 -17 5 -90 c4 -95 13 -123 55 -168 14 -15 21 -27 16 -27 -17
0 -52 42 -69 82 -10 24 -15 69 -15 128 0 86 1 91 24 100 13 4 33 21 45 37 11
15 25 33 31 40 14 16 13 23 -3 23 -8 0 -21 -18 -30 -40z m214 -51 l49 -50 0
-80 c0 -85 -11 -118 -52 -156 -70 -64 -188 -40 -234 49 -9 17 -14 58 -14 107
l0 80 48 50 c45 47 50 50 100 50 51 1 55 -1 103 -50z"/>
<path d="M190 394 c1 -14 48 -64 60 -64 5 0 10 7 10 15 0 8 -7 15 -15 15 -8 0
-15 5 -15 10 0 6 5 10 10 10 6 0 10 5 10 11 0 8 -5 8 -15 -1 -12 -10 -18 -10
-30 0 -8 7 -15 9 -15 4z"/>
<path d="M180 345 c0 -8 7 -15 15 -15 8 0 15 7 15 15 0 8 -7 15 -15 15 -8 0
-15 -7 -15 -15z"/>
<path d="M107 293 c-4 -3 -7 -18 -7 -32 0 -21 5 -26 25 -27 20 -2 25 3 25 20
0 32 -27 56 -43 39z m23 -23 c0 -5 -4 -10 -10 -10 -5 0 -10 5 -10 10 0 6 5 10
10 10 6 0 10 -4 10 -10z"/>
<path d="M167 294 c-10 -11 -9 -64 2 -64 5 0 12 6 14 13 4 9 8 8 17 -3 8 -12
10 -8 8 20 -3 33 -24 51 -41 34z"/>
<path d="M227 293 c-11 -10 -8 -63 3 -63 6 0 10 7 10 15 0 19 23 15 32 -5 4
-9 7 2 7 24 1 34 -1 37 -15 25 -12 -10 -17 -10 -23 -1 -4 7 -10 9 -14 5z"/>
<path d="M290 294 c0 -7 6 -23 13 -38 l14 -26 13 24 c7 13 10 30 7 38 -4 9 -6
7 -6 -4 -1 -10 -4 -18 -7 -18 -4 0 -13 8 -20 18 -7 9 -14 12 -14 6z"/>
<path d="M143 203 c-62 -5 -66 -16 -20 -60 64 -60 132 -60 197 2 40 38 39 55
-4 55 -18 0 -53 2 -77 4 -24 2 -68 1 -96 -1z m111 -25 c20 -28 20 -33 0 -52
-41 -41 -101 2 -69 50 19 30 49 31 69 2z m-89 2 c-3 -5 -17 -10 -31 -10 -13 0
-24 5 -24 10 0 6 14 10 31 10 17 0 28 -4 24 -10z m165 0 c0 -5 -11 -10 -24
-10 -14 0 -28 5 -31 10 -4 6 7 10 24 10 17 0 31 -4 31 -10z m-173 -26 c-3 -3
-12 -4 -19 -1 -8 3 -5 6 6 6 11 1 17 -2 13 -5z m150 0 c-3 -3 -12 -4 -19 -1
-8 3 -5 6 6 6 11 1 17 -2 13 -5z"/>
<path d="M207 174 c-15 -15 -7 -45 11 -42 9 2 17 12 17 22 0 20 -16 31 -28 20z
m23 -24 c0 -5 -4 -10 -10 -10 -5 0 -10 5 -10 10 0 6 5 10 10 10 6 0 10 -4 10
-10z"/>
<path d="M165 460 c3 -5 36 -10 73 -10 64 -1 68 -2 87 -33 11 -17 31 -37 45
-44 22 -11 26 -21 31 -75 l6 -63 1 71 2 72 -31 6 c-24 4 -34 15 -47 46 l-17
40 -78 0 c-50 0 -76 -4 -72 -10z"/>
</g>
</svg>
